<svg width="512" height="512" viewBox="0 0 512 512" fill="none" xmlns="http://www.w3.org/2000/svg">
    <path d="M61.7458 216.934V217.382V218.444C61.7458 218.444 61.7458 218.835 61.7458 219.058V219.617V219.953C61.7458 220.623 61.7458 221.294 61.4408 221.964C61.1357 222.635 61.4408 223.194 61.4408 223.809V224.535C61.4408 225.262 61.4406 226.044 61.1356 226.771C60.8305 227.497 61.1356 227.888 61.1356 228.447V229.006C61.1054 229.21 61.1054 229.417 61.1356 229.621C61.1078 229.862 61.1078 230.106 61.1356 230.347C61.107 230.458 61.107 230.573 61.1356 230.683C61.1686 230.868 61.1686 231.056 61.1356 231.242V232.192C61.1356 232.974 61.1356 233.756 61.1356 234.707C61.1356 235.098 61.1356 235.489 61.1356 235.88C61.1356 236.271 61.1356 236.663 61.1356 237.054V237.613C61.1356 238.06 61.1356 238.507 61.1356 238.954V239.569C61.1356 240.407 61.1356 241.19 61.1356 241.972V245.158V249.07C61.6543 287.866 78.9177 324.897 109.153 352.069C139.27 379.418 179.985 394.73 222.393 394.655C229.144 394.63 235.888 394.238 242.589 393.482C245.578 393.146 248.69 392.755 251.557 392.252C229.351 379.928 210.209 363.479 195.364 343.966C189.958 336.867 185.164 329.393 181.026 321.611C180.05 319.879 179.196 318.09 178.342 316.358C178.215 316.164 178.113 315.957 178.037 315.743C167.488 294.057 162.061 270.575 162.112 246.834C161.755 212.743 172.666 179.35 193.412 151.044C198.389 144.521 203.852 138.321 209.763 132.489C228.859 113.566 252.419 98.8863 278.647 89.5681C286.596 86.7402 294.751 84.4246 303.052 82.6382C317.053 79.6456 331.385 78.1454 345.762 78.1673C378.94 78.1095 411.523 86.2367 440.088 101.695V101.695L439.295 101.025L438.257 100.075H437.891L436.915 99.2364C436.6 98.9103 436.252 98.6111 435.878 98.3424L434.657 97.3365L434.169 96.8893H433.864L432.156 95.4921C431.57 94.9444 430.937 94.4397 430.265 93.9831L429.655 93.4803L428.373 92.4743L427.519 91.8037L427.031 91.4684H426.665L425.139 90.3506L423.98 89.5122L420.258 86.8297C419.888 86.6193 419.54 86.3759 419.221 86.1031L418.794 85.8238L418.062 85.3766L417.086 84.706H416.781L416.232 84.3706H415.866L414.767 83.6441H414.462C413.547 83.0293 412.632 82.4145 411.656 81.8557L410.374 81.0732H410.069L408.117 79.8998H407.69L406.348 79.0613L404.273 77.832L402.138 76.6023L400.978 75.9876H400.49L399.819 75.5963H399.392L397.867 74.7579H397.44H396.951L395.548 74.0313C392.375 72.4106 389.142 70.846 385.908 69.337L383.773 68.387L381.82 67.5486C379.563 66.5426 377.488 65.7045 375.719 64.9221L374.316 64.3071H373.889L373.034 63.9718L372.119 63.6364H371.692L366.14 61.6246L365.164 61.2893L364.187 60.954L355.707 58.3271L354.059 57.8803L352.412 57.3771H351.375L347.836 56.4831H347.348H346.616H341.491L334.352 54.8621L330.081 54.024C327.641 53.5211 325.261 53.074 322.821 52.6828L320.136 52.2356L317.451 51.8444H316.231H314.645L306.896 50.9503C301.832 50.5032 296.829 50.1677 291.765 50C288.958 50 286.152 50 283.284 50C278.586 50 273.827 50.0001 269.068 50.4472H267.604C262.357 50.7825 257.171 51.2856 251.984 51.9563L249.239 52.3475L62.1729 223.697L61.7458 216.934Z" fill="#4097DB"/>
    <path d="M449.701 293.432V293.1C449.731 292.825 449.731 292.547 449.701 292.272V291.167V290.67C449.729 290.561 449.729 290.447 449.701 290.339V289.068V288.184C449.701 287.356 449.701 286.527 450.006 285.754C450.006 285.036 450.006 284.318 450.311 283.6V281.888V281.335C450.341 280.949 450.341 280.562 450.311 280.175V279.844C450.311 279.347 450.311 278.85 450.311 278.298C450.311 277.58 450.311 276.806 450.311 275.923V273.603V272.719C450.311 272.056 450.311 271.449 450.311 270.786C450.311 270.123 450.311 269.018 450.311 268.19V267.693C450.311 267.141 450.311 266.478 450.311 265.87V261.893V260.623C449.756 222.277 432.48 185.684 402.249 158.828C372.579 132.323 332.675 117.326 291 117.017C281.222 117 271.463 117.795 261.846 119.392C284.029 131.428 303.167 147.555 318.019 166.727C339.747 194.843 351.357 228.349 351.26 262.667C351.349 296.983 339.74 330.488 318.019 358.607C296.898 386.129 267.157 407.291 232.63 419.363C211.216 426.779 188.466 430.524 165.539 430.41C132.364 430.467 99.7878 422.414 71.2457 407.102L71.6725 407.433L72.0995 407.875L73.1973 408.814L75.2101 410.526L76.5519 411.686L78.9916 413.729L80.6383 415.055H81.0042L82.5901 416.326V416.602C83.0106 416.945 83.4591 417.259 83.9319 417.54L85.2127 418.48L86.1886 419.198L89.9092 421.794L90.7019 422.346L91.617 423.009L92.1659 423.34H92.4708L93.9345 424.334L94.4225 424.61L95.1544 425.108L96.2522 425.825H96.6792L99.4848 427.593L100.766 428.366H101.071L102.108 428.974L103.205 429.637L104.913 430.631L106.621 431.625H108.085L110.585 433.834L111.805 434.497L114.123 435.712L116.014 436.651C119.307 438.364 122.662 439.965 126.016 441.457L128.212 442.451L130.347 443.335L136.446 445.93L137.971 446.538H138.52L140.594 447.311L146.144 449.245L147.973 449.852L156.39 452.448L158.037 452.945L160.538 453.663H161.209L164.197 454.437L165.722 454.823C171.821 456.369 177.921 457.64 184.386 458.634L186.947 459.021L189.509 459.352L192.132 459.683C202.497 461.009 212.952 461.674 223.421 461.672C233.909 461.675 244.385 461.011 254.771 459.683V459.683L257.21 459.352L449.64 293.763C449.677 293.715 449.702 293.661 449.712 293.604C449.723 293.546 449.719 293.487 449.701 293.432V293.432Z" fill="#1C4B70"/>
</svg>
